Coordinates
version=1
nRows=11
nColumns=36
inDegrees=yes

Units are S.I. units (second, meters, Newtons, ...)
If the header above contains a line with 'inDegrees', this indicates whether rotational values are in degrees (yes) or radians (no).

endheader
time	pelvis_tilt	pelvis_list	pelvis_rotation	pelvis_tx	pelvis_ty	pelvis_tz	hip_flexion_r	hip_adduction_r	hip_rotation_r	knee_angle_r	knee_angle_r_beta	ankle_angle_r	subtalar_angle_r	mtp_angle_r	hip_flexion_l	hip_adduction_l	hip_rotation_l	knee_angle_l	knee_angle_l_beta	ankle_angle_l	subtalar_angle_l	mtp_angle_l	lumbar_extension	lumbar_bending	lumbar_rotation	arm_flex_r	arm_add_r	arm_rot_r	elbow_flex_r	pro_sup_r	arm_flex_l	arm_add_l	arm_rot_l	elbow_flex_l	pro_sup_l
      0.00000000	      3.92188371	      1.51653375	      4.57755559	     -0.10936873	      1.37361616	     -0.11084256	     -6.49246579	     -3.36407846	     -1.26944179	      9.26901172	      0.16177477	     12.12127669	     -8.53124103	     -6.61385432	     -6.40668123	     -0.03846951	     -3.42911543	      9.42431526	      0.16448533	     15.01838565	     -0.30402127	     -6.61385432	     -9.01672526	     -0.24415166	     -3.27549661	     10.88291207	    -14.64274663	     17.73460994	     26.26634404	     96.77141757	      2.61862442	    -15.96080794	     11.53494277	     31.35548207	     93.66692492
      0.01666670	      3.91825515	      1.95374096	      5.39486674	     -0.11118773	      1.37465775	     -0.11052379	     -7.77211075	     -3.59366094	     -2.14478937	      6.44093819	      0.11241558	     13.27228691	     -8.18226948	     -6.68248681	     -9.05480481	      0.56678138	     -4.79061124	      4.54461638	      0.07931852	     14.24721088	      3.57330712	     -6.68248681	     -7.43989426	     -0.53834354	     -3.72750682	     12.59197667	    -14.71501666	     23.54719491	     23.76583960	    100.76217318	      2.00020685	    -16.92059121	     15.42647316	     32.25435340	     93.26080914
      0.03333330	      4.64828016	      2.57093270	      5.63527602	     -0.11226045	      1.37524183	     -0.10918451	     -8.49151113	     -4.34832270	     -3.25008829	      6.54537325	      0.11423831	     14.74240484	     -6.53011177	     -7.10400458	    -10.09308536	      1.22964031	     -6.43183709	      4.07995314	      0.07120862	     12.70312133	      2.83148547	     -7.10400458	     -7.81091346	     -1.23134312	     -4.26873881	     13.20531585	    -14.45020276	     26.83984920	     23.39050724	    100.75306704	      2.17958307	    -18.11239744	     19.24274925	     33.23115988	     85.38120491
      0.05000000	      4.51209860	      2.85340026	      5.57911890	     -0.12398094	      1.37610153	     -0.11264688	     -7.54441792	     -4.74619850	     -4.11936394	      7.40519401	      0.12924502	     15.25843384	     -6.97749565	     -7.14477159	     -9.41722670	      1.72036712	     -7.12853562	      4.78898967	      0.08358364	     12.99744543	      2.64281425	     -7.14477159	     -7.66351352	     -1.40805059	     -4.69342419	     14.47010839	    -13.98805784	     28.00959125	     22.56493618	    100.52092831	      2.08226935	    -18.58429254	     20.07995097	     33.91397153	     83.89834259
      0.06666670	      3.82546457	      2.99332520	      5.57805788	     -0.12329604	      1.37533428	     -0.11217753	     -6.61564280	     -4.92298679	     -4.30701947	      7.61818081	      0.13296234	     15.23034497	     -7.49225803	     -7.24707902	     -8.23196987	      2.11515984	     -7.41068736	      5.26280948	      0.09185335	     12.94846212	      1.69167622	     -7.24707902	     -6.68543199	     -1.65091982	     -4.90455025	     14.75463753	    -13.73733843	     29.21250698	     22.36911106	     97.41397399	      2.34484297	    -18.81307782	     21.66066127	     33.56741775	     79.83903459
      0.08333330	      2.89294406	      2.94535697	      5.37029158	     -0.12344888	      1.37494059	     -0.11215645	     -5.42909243	     -4.91924367	     -4.51261199	      7.87419131	      0.13743056	     14.97986021	     -7.65333969	     -7.31414874	     -7.01098765	      2.34497493	     -7.40908677	      5.29604401	      0.09243341	     13.09133071	      1.13378081	     -7.31414874	     -5.34731356	     -1.63180753	     -4.93735318	     14.93030031	    -13.33685239	     29.87052354	     21.85749479	     93.55902946	      2.32090072	    -18.75198692	     22.58570885	     33.04884986	     76.62345507
      0.10000000	      2.15246119	      2.85047019	      5.47424677	     -0.12199190	      1.37742671	     -0.11192810	     -4.65015772	     -4.79912405	     -4.95307235	      7.89749313	      0.13783726	     14.55074339	     -7.82483224	     -7.33528831	     -6.17148238	      2.38786367	     -7.57572797	      5.14498145	      0.08979687	     12.97232666	      0.66309855	     -7.33528831	     -4.47777008	     -1.61244024	     -5.11725022	     14.69364190	    -13.11721887	     30.09250824	     21.96200760	     92.22066527	      2.23309303	    -18.87400265	     23.09584513	     33.18658222	     75.43945525
      0.11666670	      1.25926000	      2.78960015	      5.42798401	     -0.12183221	      1.37326620	     -0.11222419	     -3.52584619	     -4.78626784	     -5.34947635	      8.19811696	      0.14308413	     14.13219376	     -8.18309167	     -7.34788739	     -5.08362235	      2.48228033	     -7.59678135	      5.15766181	      0.09001818	     12.89064656	     -0.11754440	     -7.34788739	     -3.20705242	     -1.69601246	     -5.17616005	     14.48958076	    -12.76011590	     30.60834986	     21.24538161	     92.37006654	      2.46293122	    -19.01008305	     25.08202264	     32.25185970	     74.53294766
      0.13333330	      0.96216322	      2.65828959	      5.36498053	     -0.12021594	      1.37956345	     -0.11187592	     -3.21335651	     -4.62331080	     -5.76918095	      8.25793784	      0.14412820	     13.71477049	     -8.20528087	     -7.34904073	     -4.75734826	      2.39932099	     -7.85237715	      4.95319382	      0.08644954	     13.10101582	     -0.22711260	     -7.34904073	     -2.92716813	     -1.60856344	     -5.19551086	     14.35742537	    -12.55094752	     30.59027090	     21.22958353	     92.36653232	      2.35503794	    -19.00251616	     25.16998474	     32.09392438	     74.51199239
      0.15000000	      0.45315720	      2.53865323	      5.20455826	     -0.12040107	      1.37876378	     -0.11216727	     -2.57109929	     -4.52096520	     -6.04139157	      8.50238928	      0.14839469	     13.32342826	     -8.64730814	     -7.37021138	     -4.11720802	      2.36432423	     -8.19760746	      4.91663949	      0.08581155	     13.39344911	     -0.06768712	     -7.37021138	     -2.26849082	     -1.54108552	     -5.15221472	     14.22357926	    -12.11692374	     30.64818870	     20.49020613	     90.76567777	      2.46876786	    -18.80701493	     26.00392799	     30.77213550	     73.30068260
      0.16666670	      0.15259956	      2.45746169	      5.18470616	     -0.11918521	      1.37804146	     -0.11182965	     -2.34317203	     -4.44235548	     -6.47143698	      8.67809748	      0.15146137	     13.01360304	     -8.94858702	     -7.39419180	     -3.80837484	      2.33789010	     -8.62919238	      4.70228250	      0.08207031	     13.22825932	     -0.28832976	     -7.39419180	     -1.86355764	     -1.50791931	     -5.05568879	     13.98421357	    -11.99082506	     31.12863059	     20.34913787	     89.09470172	      2.41974609	    -18.84122621	     27.10261133	     29.85479359	     72.07082479
